<svg width="24" height="24" viewBox="0 0 24 24" fill="none" xmlns="http://www.w3.org/2000/svg">
<path d="M5.76879 3.27893C8.29104 5.13626 11.004 8.90214 12.0001 10.9231C12.9962 8.90228 15.709 5.13622 18.2313 3.27893C20.0513 1.93876 23 0.901816 23 4.20144C23 4.86042 22.6148 9.73721 22.3889 10.5289C21.6036 13.2815 18.7421 13.9836 16.1967 13.5587C20.646 14.3014 21.7778 16.7617 19.3335 19.2221C14.6911 23.8947 12.661 18.0497 12.1406 16.552C12.0453 16.2774 12.0007 16.149 12 16.2582C11.9993 16.149 11.9547 16.2774 11.8594 16.552C11.3392 18.0497 9.30916 23.8948 4.66654 19.2221C2.22213 16.7617 3.35395 14.3013 7.80331 13.5587C5.25785 13.9836 2.39627 13.2815 1.6111 10.5289C1.38518 9.73713 1 4.86034 1 4.20144C1 0.901816 3.94882 1.93876 5.76866 3.27893H5.76879Z" fill="#7C4EFE"/>
</svg>
