<svg width="24" height="24" viewBox="0 0 24 24" fill="none" xmlns="http://www.w3.org/2000/svg">
<path d="M1 2.57575C1 1.70538 1.72325 1 2.61562 1H21.3844C22.2767 1 23 1.70538 23 2.57575V21.4243C23 22.2946 22.2767 23 21.3844 23H2.61562C1.72325 23 1 22.2946 1 21.4243V2.57575ZM7.79662 19.4168V9.48238H4.49525V19.4168H7.79662ZM6.14663 8.12525C7.2975 8.12525 8.01387 7.3635 8.01387 6.40925C7.99325 5.43438 7.29888 4.69325 6.16863 4.69325C5.03838 4.69325 4.3 5.43575 4.3 6.40925C4.3 7.3635 5.01638 8.12525 6.12462 8.12525H6.14663ZM12.8951 19.4168V13.8686C12.8951 13.5716 12.9171 13.2746 13.0051 13.0629C13.243 12.4702 13.7861 11.8556 14.6991 11.8556C15.894 11.8556 16.3711 12.7659 16.3711 14.1024V19.4168H19.6725V13.7188C19.6725 10.6662 18.0445 9.24725 15.872 9.24725C14.1202 9.24725 13.3351 10.2097 12.8951 10.8876V10.922H12.8731L12.8951 10.8876V9.48238H9.59512C9.63637 10.4146 9.59512 19.4168 9.59512 19.4168H12.8951Z" fill="#7C4EFE"/>
</svg>
