<svg width="24" height="24" viewBox="0 0 24 24" fill="none" xmlns="http://www.w3.org/2000/svg">
<path d="M15.9655 17.7685C18.7878 17.4385 21.2433 15.7404 21.5513 14.1893C22.0384 11.7445 21.9992 8.22305 21.9992 8.22305C21.9992 3.45169 18.799 2.0519 18.799 2.0519C17.1862 1.32726 14.4157 1.02338 11.5375 1H11.4675C8.58776 1.02338 5.81867 1.32726 4.20593 2.0519C4.20593 2.0519 1.00706 3.45031 1.00706 8.22305L1.00426 9.13333C0.998656 10.0133 0.994456 10.9896 1.01966 12.0085C1.13585 16.6754 1.89602 21.2763 6.31145 22.4175C8.34697 22.9442 10.0955 23.0542 11.5039 22.9785C14.056 22.841 15.4895 22.0889 15.4895 22.0889L15.4055 20.278C15.4055 20.278 13.5814 20.8417 11.5319 20.773C9.50193 20.7042 7.36001 20.5585 7.03102 18.1219C7.00124 17.8957 6.98581 17.668 6.98483 17.4399C6.98483 17.4399 8.97835 17.9157 11.5039 18.0284C13.048 18.0972 14.4955 17.9404 15.9669 17.7685H15.9655ZM18.2236 14.3722H15.8815V8.76207C15.8815 7.58091 15.3719 6.9814 14.3541 6.9814C13.2286 6.9814 12.6644 7.69229 12.6644 9.10033V12.1708H10.3349V9.09895C10.3349 7.69092 9.77072 6.98002 8.64516 6.98002C7.6274 6.98002 7.11782 7.57954 7.11782 8.76207V14.3708H4.77571V8.59294C4.77571 7.41224 5.0837 6.47447 5.69968 5.77962C6.33805 5.08523 7.17242 4.72909 8.20978 4.72909C9.40813 4.72909 10.3153 5.1801 10.9159 6.08075L11.4997 7.0364L12.0834 6.08075C12.684 5.1801 13.5912 4.72909 14.7909 4.72909C15.8269 4.72909 16.6613 5.08523 17.2982 5.77962C17.9161 6.47355 18.2245 7.41133 18.2236 8.59294V14.3722Z" fill="#7C4EFE"/>
</svg>
